<?xml version="1.0" encoding="utf-8"?>
<!-- Generator: Adobe Illustrator 25.2.2, SVG Export Plug-In . SVG Version: 6.00 Build 0)  -->
<svg version="1.1" id="Calque_1" xmlns="http://www.w3.org/2000/svg" xmlns:xlink="http://www.w3.org/1999/xlink" x="0px" y="0px"
	 viewBox="0 0 1417.3 1417.3" style="enable-background:new 0 0 1417.3 1417.3;" xml:space="preserve">
<style type="text/css">
	.st0{fill:#F2F2F2;}
</style>
<path class="st0" d="M1417.3,1417.3c-472.3,0-944.7,0-1417.3,0C0,945.1,0,472.8,0,0c472.3,0,944.8,0,1417.3,0
	C1417.3,472.2,1417.3,944.7,1417.3,1417.3z M706.8,1417.3c2.9-4.9,4.6-7.4,5.9-10.1"/>
<path d="M707.9,894.3c-11.4-22.3-22.4-43.8-33.3-65.3c-26.7-52.4-54-104.5-80-157.3c-24.1-49.1-18.9-96.4,14.7-139.4
	c20.1-25.7,47.3-40.5,79.8-45.4c62.3-9.3,122.4,28,140.9,88.1c10.2,33.1,7.6,65.4-8.1,96.4c-37.3,73.4-74.8,146.7-112.2,220
	C709.2,892.1,708.7,892.8,707.9,894.3z M707.9,689.8c41.9,0.1,76.8-34.7,76.7-76.7c0-41.9-34.2-76.2-76.4-76.6
	c-41.8-0.4-76.7,34.2-76.9,76.5C631,654.8,665.8,689.7,707.9,689.8z"/>
</svg>
