<?xml version="1.0" encoding="utf-8"?>
<!-- Generator: Adobe Illustrator 25.2.2, SVG Export Plug-In . SVG Version: 6.00 Build 0)  -->
<svg version="1.1" id="Calque_1" xmlns="http://www.w3.org/2000/svg" xmlns:xlink="http://www.w3.org/1999/xlink" x="0px" y="0px"
	 viewBox="0 0 1530.7 1530.7" style="enable-background:new 0 0 1530.7 1530.7;" xml:space="preserve">
<style type="text/css">
	.st0{fill:#F2F2F2;}
</style>
<path class="st0" d="M1528.8,1530.7H1.9c-1.1,0-1.9-0.8-1.9-1.8V1.8C0,0.8,0.9,0,1.9,0h1526.8c1.1,0,1.9,0.8,1.9,1.8v1527.1
	C1530.7,1529.9,1529.8,1530.7,1528.8,1530.7z M763.3,1530.7c3.1-5.3,4.9-8,6.4-10.9"/>
<path d="M766.8,948.2c-0.7,1.3-2.5,1.3-3.2,0c-10.8-21.2-21.4-41.8-31.9-62.4c-26.7-52.4-54-104.5-80-157.3
	c-24.1-49.1-18.9-96.4,14.7-139.4c20.1-25.7,47.3-40.5,79.8-45.4c62.3-9.3,122.4,28,140.9,88.1c10.2,33.1,7.6,65.4-8.1,96.4
	C841.7,801.5,804.2,874.8,766.8,948.2C766.8,948.2,766.8,948.2,766.8,948.2z M765.1,746.6c41.9,0.1,76.8-34.7,76.7-76.7
	c0-41.9-34.2-76.2-76.4-76.6c-41.8-0.4-76.7,34.2-76.9,76.5C688.3,711.6,723,746.5,765.1,746.6z"/>
</svg>
