<?xml version="1.0" encoding="utf-8"?>
<!-- Generator: Adobe Illustrator 25.2.2, SVG Export Plug-In . SVG Version: 6.00 Build 0)  -->
<svg version="1.1" id="Calque_1" xmlns="http://www.w3.org/2000/svg" xmlns:xlink="http://www.w3.org/1999/xlink" x="0px" y="0px"
	 viewBox="0 0 42 49" style="enable-background:new 0 0 42 49;" xml:space="preserve">
<style type="text/css">
	.st0{fill:#F2F2F2;}
</style>
<path class="st0" d="M41.9,49H0.1C0,49,0,49,0,48.9V0.1C0,0,0,0,0.1,0h41.9C42,0,42,0,42,0.1L41.9,49C42,49,42,49,41.9,49z M20.9,49
	c0.1-0.2,0.1-0.3,0.2-0.4"/>
<path d="M21,30.4C21,30.4,21,30.4,21,30.4c-0.4-0.7-0.7-1.3-1-2c-0.7-1.7-1.5-3.3-2.2-5c-0.7-1.6-0.5-3.1,0.4-4.5
	c0.6-0.8,1.3-1.3,2.2-1.5c1.7-0.3,3.4,0.9,3.9,2.8c0.3,1.1,0.2,2.1-0.2,3.1C23.1,25.7,22.1,28,21,30.4C21,30.4,21,30.4,21,30.4z
	 M21,23.9c1.2,0,2.1-1.1,2.1-2.5c0-1.3-0.9-2.4-2.1-2.5c-1.1,0-2.1,1.1-2.1,2.4C18.9,22.8,19.8,23.9,21,23.9z"/>
</svg>
